<?xml version="1.0" encoding="UTF-8"?>
<!DOCTYPE svg PUBLIC "-//W3C//DTD SVG 1.1//EN" "http://www.w3.org/Graphics/SVG/1.1/DTD/svg11.dtd">
<svg xmlns="http://www.w3.org/2000/svg" version="1.1" width="200px" height="200px" style="shape-rendering:geometricPrecision; text-rendering:geometricPrecision; image-rendering:optimizeQuality; fill-rule:evenodd; clip-rule:evenodd" xmlns:xlink="http://www.w3.org/1999/xlink">
<g><path style="opacity:0.943" fill="#054563" d="M 153.5,105.5 C 152.504,105.586 151.671,105.252 151,104.5C 153.967,82.4881 147.801,63.6548 132.5,48C 125.984,42.7232 118.651,39.3899 110.5,38C 131.514,56.7453 138.18,79.2453 130.5,105.5C 129.699,97.9119 129.199,90.2452 129,82.5C 127.559,63.2701 118.726,48.6035 102.5,38.5C 101.667,60.159 101.167,81.8256 101,103.5C 99.6667,104.833 98.3333,104.833 97,103.5C 96.6667,81.5 96.3333,59.5 96,37.5C 81.3259,46.4971 72.3259,59.4971 69,76.5C 68.8197,86.0774 68.3197,95.5774 67.5,105C 66.5509,105.617 65.7175,105.451 65,104.5C 63.8772,91.7139 64.5439,79.0472 67,66.5C 70.7717,54.7869 77.6051,45.2869 87.5,38C 68.0516,43.2787 55.5516,55.7787 50,75.5C 48.8073,85.117 48.1406,94.7836 48,104.5C 47.6174,105.056 47.1174,105.389 46.5,105.5C 44.7202,104.01 44.0535,102.01 44.5,99.5C 40.1161,99.8256 35.7828,99.4922 31.5,98.5C 30.1667,97.5 30.1667,96.5 31.5,95.5C 35.7828,94.5078 40.1161,94.1744 44.5,94.5C 44.8282,89.1254 44.4948,83.7921 43.5,78.5C 40.5,77.3333 37.5,76.1667 34.5,75C 33.6198,73.6439 33.2865,72.1439 33.5,70.5C 37.6938,70.1767 41.5271,71.1767 45,73.5C 46.6692,68.3395 48.8359,63.3395 51.5,58.5C 48.9464,56.2919 46.4464,53.9586 44,51.5C 42.9678,46.8583 44.4678,45.6917 48.5,48C 50.3884,50.1896 52.5551,52.0229 55,53.5C 58.6757,48.6583 62.8424,44.325 67.5,40.5C 66.0301,37.727 64.6968,34.8937 63.5,32C 64.0593,29.8125 65.3927,29.1458 67.5,30C 69.3404,32.6687 71.3404,35.1687 73.5,37.5C 78.5979,35.0226 83.9313,33.3559 89.5,32.5C 88.8379,28.5341 88.5045,24.5341 88.5,20.5C 90.1439,20.2865 91.6439,20.6198 93,21.5C 94.0175,24.6386 94.8508,27.8052 95.5,31C 98.4816,31.498 101.482,31.6646 104.5,31.5C 104.998,28.5131 105.498,25.5131 106,22.5C 107.312,20.3424 108.978,20.0091 111,21.5C 111.062,25.1483 110.895,28.815 110.5,32.5C 115.814,33.66 120.98,35.3266 126,37.5C 128.35,34.7664 130.683,32.0997 133,29.5C 134.622,29.9541 135.788,30.9541 136.5,32.5C 134.707,35.2511 133.041,38.0844 131.5,41C 136.167,44.3333 140.167,48.3333 143.5,53C 144.167,53.6667 144.833,53.6667 145.5,53C 147.983,50.5938 150.65,48.4271 153.5,46.5C 155.942,47.384 156.775,49.0507 156,51.5C 152.87,53.628 150.037,56.128 147.5,59C 150.245,63.5652 152.411,68.3985 154,73.5C 157.587,71.4126 161.42,70.5793 165.5,71C 166.833,72.3333 166.833,73.6667 165.5,75C 161.979,76.6738 158.313,77.8404 154.5,78.5C 155.194,83.8049 155.528,89.1383 155.5,94.5C 159.833,94.5 164.167,94.5 168.5,94.5C 168.5,96.1667 168.5,97.8333 168.5,99.5C 164.167,99.5 159.833,99.5 155.5,99.5C 155.741,101.898 155.074,103.898 153.5,105.5 Z"/></g>
<g><path style="opacity:1" fill="#91c451" d="M 130.5,105.5 C 130.5,105.833 130.5,106.167 130.5,106.5C 102.5,106.5 74.5,106.5 46.5,106.5C 46.5,106.167 46.5,105.833 46.5,105.5C 47.1174,105.389 47.6174,105.056 48,104.5C 48.1406,94.7836 48.8073,85.117 50,75.5C 55.5516,55.7787 68.0516,43.2787 87.5,38C 77.6051,45.2869 70.7717,54.7869 67,66.5C 64.5439,79.0472 63.8772,91.7139 65,104.5C 65.7175,105.451 66.5509,105.617 67.5,105C 68.3197,95.5774 68.8197,86.0774 69,76.5C 72.3259,59.4971 81.3259,46.4971 96,37.5C 96.3333,59.5 96.6667,81.5 97,103.5C 98.3333,104.833 99.6667,104.833 101,103.5C 101.167,81.8256 101.667,60.159 102.5,38.5C 118.726,48.6035 127.559,63.2701 129,82.5C 129.199,90.2452 129.699,97.9119 130.5,105.5 Z"/></g>
<g><path style="opacity:1" fill="#7cab37" d="M 153.5,105.5 C 153.5,105.833 153.5,106.167 153.5,106.5C 145.833,106.5 138.167,106.5 130.5,106.5C 130.5,106.167 130.5,105.833 130.5,105.5C 138.18,79.2453 131.514,56.7453 110.5,38C 118.651,39.3899 125.984,42.7232 132.5,48C 147.801,63.6548 153.967,82.4881 151,104.5C 151.671,105.252 152.504,105.586 153.5,105.5 Z"/></g>
<g><path style="opacity:1" fill="#0b4763" d="M 86.5,49.5 C 87.8333,49.5 89.1667,49.5 90.5,49.5C 90.5,51.1667 90.5,52.8333 90.5,54.5C 88.8333,54.5 87.1667,54.5 85.5,54.5C 85.366,52.7085 85.6993,51.0418 86.5,49.5 Z"/></g>
<g><path style="opacity:1" fill="#1c5262" d="M 63.5,53.5 C 67.35,53.7007 68.35,55.5341 66.5,59C 61.2894,59.5464 60.2894,57.713 63.5,53.5 Z"/></g>
<g><path style="opacity:1" fill="#0a4763" d="M 76.5,63.5 C 78.1667,63.5 79.8333,63.5 81.5,63.5C 81.5,65.1667 81.5,66.8333 81.5,68.5C 77.5,69.1667 75.8333,67.5 76.5,63.5 Z"/></g>
<g><path style="opacity:0.981" fill="#014364" d="M 46.5,106.5 C 74.5,106.5 102.5,106.5 130.5,106.5C 138.167,106.5 145.833,106.5 153.5,106.5C 158.762,106.195 163.928,106.529 169,107.5C 169.667,117.833 169.667,128.167 169,138.5C 168.5,139 168,139.5 167.5,140C 164.183,140.498 160.85,140.665 157.5,140.5C 157.667,151.838 157.5,163.172 157,174.5C 155.833,175.667 154.667,176.833 153.5,178C 117.167,178.667 80.8333,178.667 44.5,178C 43.3333,176.833 42.1667,175.667 41,174.5C 40.5001,163.172 40.3335,151.838 40.5,140.5C 37.4816,140.665 34.4816,140.498 31.5,140C 31,139.5 30.5,139 30,138.5C 29.3333,128.167 29.3333,117.833 30,107.5C 35.4066,106.527 40.9066,106.193 46.5,106.5 Z"/></g>
<g><path style="opacity:1" fill="#f1f4fa" d="M 34.5,111.5 C 75.5,111.5 116.5,111.5 157.5,111.5C 157.5,113.5 157.5,115.5 157.5,117.5C 154.833,119.5 154.833,121.5 157.5,123.5C 157.167,124.833 156.833,126.167 156.5,127.5C 156.5,128.167 156.167,128.5 155.5,128.5C 154.244,128.461 153.244,128.961 152.5,130C 116.168,130.5 79.8349,130.667 43.5,130.5C 43.2993,126.65 41.4659,125.65 38,127.5C 37.5172,128.448 37.3505,129.448 37.5,130.5C 36.5,130.5 35.5,130.5 34.5,130.5C 34.5,124.167 34.5,117.833 34.5,111.5 Z"/></g>
<g><path style="opacity:1" fill="#cfdeea" d="M 34.5,111.5 C 77.6635,110.501 120.997,110.168 164.5,110.5C 164.5,118.833 164.5,127.167 164.5,135.5C 121.167,135.5 77.8333,135.5 34.5,135.5C 34.5,133.833 34.5,132.167 34.5,130.5C 35.5,130.5 36.5,130.5 37.5,130.5C 39.5,133.167 41.5,133.167 43.5,130.5C 79.8349,130.667 116.168,130.5 152.5,130C 153.244,128.961 154.244,128.461 155.5,128.5C 155.5,129.833 155.5,131.167 155.5,132.5C 157.199,132.66 158.866,132.494 160.5,132C 162.009,128.331 160.676,126.831 156.5,127.5C 156.833,126.167 157.167,124.833 157.5,123.5C 158.496,123.586 159.329,123.252 160,122.5C 160.494,120.866 160.66,119.199 160.5,117.5C 159.5,117.5 158.5,117.5 157.5,117.5C 157.5,115.5 157.5,113.5 157.5,111.5C 116.5,111.5 75.5,111.5 34.5,111.5 Z"/></g>
<g><path style="opacity:1" fill="#154d6c" d="M 38.5,114.5 C 42.1378,113.737 43.6378,115.07 43,118.5C 38.4155,120.413 36.9155,119.079 38.5,114.5 Z"/></g>
<g><path style="opacity:1" fill="#1a506f" d="M 157.5,117.5 C 158.5,117.5 159.5,117.5 160.5,117.5C 160.66,119.199 160.494,120.866 160,122.5C 159.329,123.252 158.496,123.586 157.5,123.5C 154.833,121.5 154.833,119.5 157.5,117.5 Z"/></g>
<g><path style="opacity:1" fill="#2a5a78" d="M 43.5,130.5 C 41.5,133.167 39.5,133.167 37.5,130.5C 37.3505,129.448 37.5172,128.448 38,127.5C 41.4659,125.65 43.2993,126.65 43.5,130.5 Z"/></g>
<g><path style="opacity:1" fill="#1b506f" d="M 156.5,127.5 C 160.676,126.831 162.009,128.331 160.5,132C 158.866,132.494 157.199,132.66 155.5,132.5C 155.5,131.167 155.5,129.833 155.5,128.5C 156.167,128.5 156.5,128.167 156.5,127.5 Z"/></g>
<g><path style="opacity:1" fill="#f1f4fa" d="M 45.5,140.5 C 78.5,140.5 111.5,140.5 144.5,140.5C 144.5,141.167 144.5,141.833 144.5,142.5C 143.167,144.167 143.167,145.833 144.5,147.5C 144.5,149.833 144.5,152.167 144.5,154.5C 143.566,155.568 143.232,156.901 143.5,158.5C 143.141,160.371 142.141,161.871 140.5,163C 111.835,163.5 83.1686,163.667 54.5,163.5C 53.9283,160.756 52.2617,159.923 49.5,161C 48.7476,161.671 48.4142,162.504 48.5,163.5C 47.5,163.5 46.5,163.5 45.5,163.5C 45.5,155.833 45.5,148.167 45.5,140.5 Z"/></g>
<g><path style="opacity:1" fill="#d3e1ed" d="M 144.5,140.5 C 147.167,140.5 149.833,140.5 152.5,140.5C 152.5,150.833 152.5,161.167 152.5,171.5C 152.586,172.496 152.252,173.329 151.5,174C 116.833,174.667 82.1667,174.667 47.5,174C 47,173.5 46.5,173 46,172.5C 45.502,169.518 45.3354,166.518 45.5,163.5C 46.5,163.5 47.5,163.5 48.5,163.5C 50.5,166.167 52.5,166.167 54.5,163.5C 83.1686,163.667 111.835,163.5 140.5,163C 142.141,161.871 143.141,160.371 143.5,158.5C 147.411,160.268 149.078,158.935 148.5,154.5C 147.167,154.5 145.833,154.5 144.5,154.5C 144.5,152.167 144.5,149.833 144.5,147.5C 145.833,147.5 147.167,147.5 148.5,147.5C 148.5,145.833 148.5,144.167 148.5,142.5C 147.167,142.5 145.833,142.5 144.5,142.5C 144.5,141.833 144.5,141.167 144.5,140.5 Z"/></g>
<g><path style="opacity:1" fill="#548098" d="M 45.5,140.5 C 81.3295,139.502 117.329,139.168 153.5,139.5C 153.828,150.346 153.494,161.013 152.5,171.5C 152.5,161.167 152.5,150.833 152.5,140.5C 149.833,140.5 147.167,140.5 144.5,140.5C 111.5,140.5 78.5,140.5 45.5,140.5 Z"/></g>
<g><path style="opacity:1" fill="#154c6c" d="M 144.5,142.5 C 145.833,142.5 147.167,142.5 148.5,142.5C 148.5,144.167 148.5,145.833 148.5,147.5C 147.167,147.5 145.833,147.5 144.5,147.5C 143.167,145.833 143.167,144.167 144.5,142.5 Z"/></g>
<g><path style="opacity:1" fill="#054667" d="M 144.5,154.5 C 145.833,154.5 147.167,154.5 148.5,154.5C 149.078,158.935 147.411,160.268 143.5,158.5C 143.232,156.901 143.566,155.568 144.5,154.5 Z"/></g>
<g><path style="opacity:1" fill="#174e6e" d="M 54.5,163.5 C 52.5,166.167 50.5,166.167 48.5,163.5C 48.4142,162.504 48.7476,161.671 49.5,161C 52.2617,159.923 53.9283,160.756 54.5,163.5 Z"/></g>
<g><path style="opacity:1" fill="#054666" d="M 144.5,165.5 C 147.91,165.384 149.244,167.05 148.5,170.5C 146.833,170.5 145.167,170.5 143.5,170.5C 143.366,168.708 143.699,167.042 144.5,165.5 Z"/></g>
<g><path style="opacity:1" fill="#144e6d" d="M 130.5,165.5 C 134.35,165.701 135.35,167.534 133.5,171C 129.537,171.118 128.537,169.284 130.5,165.5 Z"/></g>
</svg>
